# xmcd CD database file
#
# Track frame offsets:
#	150
#	10899
#	25646
#	40808
#	55915
#	73094
#	83914
#	96088
#	108097
#	123639
#	134881
#	148516
#	162623
#	174695
#	188777
#	201721
#	213845
#	230682
#	251197
#	266626
#	278435
#	291659
#	305159
#	319956
#
# Disc length: 4688 seconds
#
# Revision: 0
# Processed by: cddbd v1.5.1PL0 Copyright (c) Steve Scherf et al.
# Submitted via: CDex 1.51
#
DISCID=7e124e18
DTITLE=Chico Buarque de Holanda - Selecao CD 04
DYEAR=1990
DGENRE=MPB
TTITLE0=A Rosa
TTITLE1=Anos Dourados
TTITLE2=As Minhas Meninas
TTITLE3=Ate Pensei
TTITLE4=Biscate
TTITLE5=Choro Bandido
TTITLE6=De Volta ao Samba
TTITLE7=Estacao Derradeira
TTITLE8=Folhetim
TTITLE9=Funeral de Lavrador
TTITLE10=Joana Francesa
TTITLE11=Meninos Eu Vi
TTITLE12=Meu Refrao
TTITLE13=Morro Dois Irmaos
TTITLE14=O Futebol
TTITLE15=Retrato em Preto e Branco
TTITLE16=Roda Viva
TTITLE17=Roda Viva
TTITLE18=Sobre Todas as Coisas
TTITLE19=Suburbano Coracao
TTITLE20=Tamandareh
TTITLE21=Valsa Brasileira
TTITLE22=Vida
TTITLE23=Voce Nao Entende nada e Cotidiano
EXTD=YEAR: 1990
EXTT0=
EXTT1=
EXTT2=
EXTT3=
EXTT4=
EXTT5=
EXTT6=
EXTT7=
EXTT8=
EXTT9=
EXTT10=
EXTT11=
EXTT12=
EXTT13=
EXTT14=
EXTT15=
EXTT16=
EXTT17=
EXTT18=
EXTT19=
EXTT20=
EXTT21=
EXTT22=
EXTT23=
PLAYORDER=
